<mxfile host="app.diagrams.net" modified="2023-10-14T03:22:21.523Z" agent="Mozilla/5.0 (Macintosh; Intel Mac OS X 10_15_7) AppleWebKit/537.36 (KHTML, like Gecko) Chrome/116.0.0.0 Safari/537.36" etag="m8sLDjl70pwbquWTgLyg" version="22.0.4" type="github">
  <diagram name="第 1 页" id="ASXTIWkWVgadqoEPE6cS">
    <mxGraphModel dx="1026" dy="573" grid="1" gridSize="10" guides="1" tooltips="1" connect="1" arrows="1" fold="1" page="1" pageScale="1" pageWidth="827" pageHeight="1169" math="0" shadow="0">
      <root>
        <mxCell id="0" />
        <mxCell id="1" parent="0" />
        <mxCell id="DOUFbh5CaLRuuQntH4j3-1" value="&lt;font color=&quot;#ff0303&quot; style=&quot;font-size: 18px;&quot;&gt;A(0,0)&lt;/font&gt;" style="text;html=1;strokeColor=none;fillColor=none;align=center;verticalAlign=middle;whiteSpace=wrap;rounded=0;" vertex="1" parent="1">
          <mxGeometry x="320" y="90" width="70" height="30" as="geometry" />
        </mxCell>
        <mxCell id="DOUFbh5CaLRuuQntH4j3-2" value="&lt;font style=&quot;font-size: 18px;&quot;&gt;(1,0)&lt;/font&gt;" style="text;html=1;strokeColor=none;fillColor=none;align=center;verticalAlign=middle;whiteSpace=wrap;rounded=0;" vertex="1" parent="1">
          <mxGeometry x="240" y="150" width="70" height="30" as="geometry" />
        </mxCell>
        <mxCell id="DOUFbh5CaLRuuQntH4j3-3" value="&lt;font style=&quot;font-size: 18px;&quot;&gt;(0,1)&lt;/font&gt;" style="text;html=1;strokeColor=none;fillColor=none;align=center;verticalAlign=middle;whiteSpace=wrap;rounded=0;" vertex="1" parent="1">
          <mxGeometry x="400" y="150" width="70" height="30" as="geometry" />
        </mxCell>
        <mxCell id="DOUFbh5CaLRuuQntH4j3-4" value="&lt;font style=&quot;font-size: 18px;&quot;&gt;(0,2)&lt;/font&gt;" style="text;html=1;strokeColor=none;fillColor=none;align=center;verticalAlign=middle;whiteSpace=wrap;rounded=0;" vertex="1" parent="1">
          <mxGeometry x="344" y="220" width="70" height="30" as="geometry" />
        </mxCell>
        <mxCell id="DOUFbh5CaLRuuQntH4j3-5" value="&lt;font style=&quot;font-size: 18px;&quot;&gt;(1,1)&lt;/font&gt;" style="text;html=1;strokeColor=none;fillColor=none;align=center;verticalAlign=middle;whiteSpace=wrap;rounded=0;" vertex="1" parent="1">
          <mxGeometry x="460" y="220" width="70" height="30" as="geometry" />
        </mxCell>
        <mxCell id="DOUFbh5CaLRuuQntH4j3-6" value="&lt;font style=&quot;font-size: 18px;&quot;&gt;(1,0)&lt;/font&gt;" style="text;html=1;strokeColor=none;fillColor=none;align=center;verticalAlign=middle;whiteSpace=wrap;rounded=0;" vertex="1" parent="1">
          <mxGeometry x="344" y="300" width="70" height="30" as="geometry" />
        </mxCell>
        <mxCell id="DOUFbh5CaLRuuQntH4j3-7" value="&lt;font style=&quot;font-size: 18px;&quot;&gt;(1,2)&lt;/font&gt;" style="text;html=1;strokeColor=none;fillColor=none;align=center;verticalAlign=middle;whiteSpace=wrap;rounded=0;" vertex="1" parent="1">
          <mxGeometry x="460" y="300" width="70" height="30" as="geometry" />
        </mxCell>
        <mxCell id="DOUFbh5CaLRuuQntH4j3-8" value="&lt;font style=&quot;font-size: 18px;&quot;&gt;(2,1)&lt;/font&gt;" style="text;html=1;strokeColor=none;fillColor=none;align=center;verticalAlign=middle;whiteSpace=wrap;rounded=0;" vertex="1" parent="1">
          <mxGeometry x="580" y="300" width="70" height="30" as="geometry" />
        </mxCell>
        <mxCell id="DOUFbh5CaLRuuQntH4j3-13" value="" style="endArrow=classic;html=1;rounded=0;exitX=0.5;exitY=1;exitDx=0;exitDy=0;entryX=0.5;entryY=0;entryDx=0;entryDy=0;" edge="1" parent="1" source="DOUFbh5CaLRuuQntH4j3-1" target="DOUFbh5CaLRuuQntH4j3-2">
          <mxGeometry width="50" height="50" relative="1" as="geometry">
            <mxPoint x="390" y="320" as="sourcePoint" />
            <mxPoint x="440" y="270" as="targetPoint" />
          </mxGeometry>
        </mxCell>
        <mxCell id="DOUFbh5CaLRuuQntH4j3-15" value="" style="endArrow=classic;html=1;rounded=0;exitX=0.5;exitY=1;exitDx=0;exitDy=0;entryX=0.5;entryY=0;entryDx=0;entryDy=0;" edge="1" parent="1" source="DOUFbh5CaLRuuQntH4j3-1" target="DOUFbh5CaLRuuQntH4j3-3">
          <mxGeometry width="50" height="50" relative="1" as="geometry">
            <mxPoint x="365" y="130" as="sourcePoint" />
            <mxPoint x="285" y="160" as="targetPoint" />
          </mxGeometry>
        </mxCell>
        <mxCell id="DOUFbh5CaLRuuQntH4j3-16" value="" style="endArrow=classic;html=1;rounded=0;exitX=0.5;exitY=1;exitDx=0;exitDy=0;entryX=0.5;entryY=0;entryDx=0;entryDy=0;" edge="1" parent="1" source="DOUFbh5CaLRuuQntH4j3-3" target="DOUFbh5CaLRuuQntH4j3-5">
          <mxGeometry width="50" height="50" relative="1" as="geometry">
            <mxPoint x="365" y="130" as="sourcePoint" />
            <mxPoint x="445" y="160" as="targetPoint" />
          </mxGeometry>
        </mxCell>
        <mxCell id="DOUFbh5CaLRuuQntH4j3-17" value="" style="endArrow=classic;html=1;rounded=0;exitX=0.5;exitY=1;exitDx=0;exitDy=0;entryX=0.5;entryY=0;entryDx=0;entryDy=0;" edge="1" parent="1" source="DOUFbh5CaLRuuQntH4j3-3" target="DOUFbh5CaLRuuQntH4j3-4">
          <mxGeometry width="50" height="50" relative="1" as="geometry">
            <mxPoint x="375" y="140" as="sourcePoint" />
            <mxPoint x="455" y="170" as="targetPoint" />
          </mxGeometry>
        </mxCell>
        <mxCell id="DOUFbh5CaLRuuQntH4j3-18" value="" style="endArrow=classic;html=1;rounded=0;exitX=0.5;exitY=1;exitDx=0;exitDy=0;entryX=0.5;entryY=0;entryDx=0;entryDy=0;" edge="1" parent="1" source="DOUFbh5CaLRuuQntH4j3-5" target="DOUFbh5CaLRuuQntH4j3-7">
          <mxGeometry width="50" height="50" relative="1" as="geometry">
            <mxPoint x="385" y="150" as="sourcePoint" />
            <mxPoint x="465" y="180" as="targetPoint" />
          </mxGeometry>
        </mxCell>
        <mxCell id="DOUFbh5CaLRuuQntH4j3-19" value="" style="endArrow=classic;html=1;rounded=0;exitX=0.5;exitY=1;exitDx=0;exitDy=0;entryX=0.386;entryY=0.033;entryDx=0;entryDy=0;entryPerimeter=0;" edge="1" parent="1" source="DOUFbh5CaLRuuQntH4j3-5" target="DOUFbh5CaLRuuQntH4j3-8">
          <mxGeometry width="50" height="50" relative="1" as="geometry">
            <mxPoint x="395" y="160" as="sourcePoint" />
            <mxPoint x="475" y="190" as="targetPoint" />
          </mxGeometry>
        </mxCell>
        <mxCell id="DOUFbh5CaLRuuQntH4j3-20" value="" style="endArrow=classic;html=1;rounded=0;exitX=0.5;exitY=1;exitDx=0;exitDy=0;entryX=0.5;entryY=0;entryDx=0;entryDy=0;" edge="1" parent="1" source="DOUFbh5CaLRuuQntH4j3-5" target="DOUFbh5CaLRuuQntH4j3-6">
          <mxGeometry width="50" height="50" relative="1" as="geometry">
            <mxPoint x="405" y="170" as="sourcePoint" />
            <mxPoint x="485" y="200" as="targetPoint" />
          </mxGeometry>
        </mxCell>
        <mxCell id="DOUFbh5CaLRuuQntH4j3-21" value="&lt;font style=&quot;font-size: 18px;&quot;&gt;(2,0)&lt;/font&gt;" style="text;html=1;strokeColor=none;fillColor=none;align=center;verticalAlign=middle;whiteSpace=wrap;rounded=0;" vertex="1" parent="1">
          <mxGeometry x="462" y="370" width="70" height="30" as="geometry" />
        </mxCell>
        <mxCell id="DOUFbh5CaLRuuQntH4j3-22" value="&lt;font style=&quot;font-size: 18px;&quot;&gt;(2,2)&lt;/font&gt;" style="text;html=1;strokeColor=none;fillColor=none;align=center;verticalAlign=middle;whiteSpace=wrap;rounded=0;" vertex="1" parent="1">
          <mxGeometry x="580" y="370" width="70" height="30" as="geometry" />
        </mxCell>
        <mxCell id="DOUFbh5CaLRuuQntH4j3-30" style="edgeStyle=orthogonalEdgeStyle;rounded=0;orthogonalLoop=1;jettySize=auto;html=1;exitX=0.5;exitY=1;exitDx=0;exitDy=0;entryX=0.5;entryY=0;entryDx=0;entryDy=0;" edge="1" parent="1" source="DOUFbh5CaLRuuQntH4j3-23" target="DOUFbh5CaLRuuQntH4j3-28">
          <mxGeometry relative="1" as="geometry" />
        </mxCell>
        <mxCell id="DOUFbh5CaLRuuQntH4j3-23" value="&lt;font style=&quot;font-size: 18px;&quot;&gt;(3,1)&lt;/font&gt;" style="text;html=1;strokeColor=none;fillColor=none;align=center;verticalAlign=middle;whiteSpace=wrap;rounded=0;" vertex="1" parent="1">
          <mxGeometry x="698" y="370" width="70" height="30" as="geometry" />
        </mxCell>
        <mxCell id="DOUFbh5CaLRuuQntH4j3-24" value="" style="endArrow=classic;html=1;rounded=0;exitX=0.5;exitY=1;exitDx=0;exitDy=0;entryX=0.5;entryY=0;entryDx=0;entryDy=0;" edge="1" parent="1" source="DOUFbh5CaLRuuQntH4j3-8" target="DOUFbh5CaLRuuQntH4j3-23">
          <mxGeometry width="50" height="50" relative="1" as="geometry">
            <mxPoint x="505" y="260" as="sourcePoint" />
            <mxPoint x="617" y="311" as="targetPoint" />
          </mxGeometry>
        </mxCell>
        <mxCell id="DOUFbh5CaLRuuQntH4j3-25" value="" style="endArrow=classic;html=1;rounded=0;exitX=0.5;exitY=1;exitDx=0;exitDy=0;entryX=0.5;entryY=0;entryDx=0;entryDy=0;" edge="1" parent="1" source="DOUFbh5CaLRuuQntH4j3-8" target="DOUFbh5CaLRuuQntH4j3-22">
          <mxGeometry width="50" height="50" relative="1" as="geometry">
            <mxPoint x="515" y="270" as="sourcePoint" />
            <mxPoint x="627" y="321" as="targetPoint" />
          </mxGeometry>
        </mxCell>
        <mxCell id="DOUFbh5CaLRuuQntH4j3-26" value="" style="endArrow=classic;html=1;rounded=0;exitX=0.5;exitY=1;exitDx=0;exitDy=0;entryX=0.5;entryY=0;entryDx=0;entryDy=0;" edge="1" parent="1" source="DOUFbh5CaLRuuQntH4j3-8" target="DOUFbh5CaLRuuQntH4j3-21">
          <mxGeometry width="50" height="50" relative="1" as="geometry">
            <mxPoint x="525" y="280" as="sourcePoint" />
            <mxPoint x="637" y="331" as="targetPoint" />
          </mxGeometry>
        </mxCell>
        <mxCell id="DOUFbh5CaLRuuQntH4j3-27" value="&lt;font style=&quot;font-size: 18px;&quot;&gt;(3,0)&lt;/font&gt;" style="text;html=1;strokeColor=none;fillColor=none;align=center;verticalAlign=middle;whiteSpace=wrap;rounded=0;" vertex="1" parent="1">
          <mxGeometry x="580" y="440" width="70" height="30" as="geometry" />
        </mxCell>
        <mxCell id="DOUFbh5CaLRuuQntH4j3-28" value="&lt;font style=&quot;font-size: 18px;&quot;&gt;(3,2)&lt;/font&gt;" style="text;html=1;strokeColor=none;fillColor=none;align=center;verticalAlign=middle;whiteSpace=wrap;rounded=0;" vertex="1" parent="1">
          <mxGeometry x="698" y="440" width="70" height="30" as="geometry" />
        </mxCell>
        <mxCell id="DOUFbh5CaLRuuQntH4j3-36" style="edgeStyle=orthogonalEdgeStyle;rounded=0;orthogonalLoop=1;jettySize=auto;html=1;exitX=0.5;exitY=1;exitDx=0;exitDy=0;entryX=0.5;entryY=0;entryDx=0;entryDy=0;" edge="1" parent="1" source="DOUFbh5CaLRuuQntH4j3-29" target="DOUFbh5CaLRuuQntH4j3-34">
          <mxGeometry relative="1" as="geometry" />
        </mxCell>
        <mxCell id="DOUFbh5CaLRuuQntH4j3-29" value="&lt;font style=&quot;font-size: 18px;&quot;&gt;(4,1)&lt;/font&gt;" style="text;html=1;strokeColor=none;fillColor=none;align=center;verticalAlign=middle;whiteSpace=wrap;rounded=0;" vertex="1" parent="1">
          <mxGeometry x="816" y="440" width="70" height="30" as="geometry" />
        </mxCell>
        <mxCell id="DOUFbh5CaLRuuQntH4j3-31" value="" style="endArrow=classic;html=1;rounded=0;exitX=0.5;exitY=1;exitDx=0;exitDy=0;entryX=0.5;entryY=0;entryDx=0;entryDy=0;" edge="1" parent="1" source="DOUFbh5CaLRuuQntH4j3-23" target="DOUFbh5CaLRuuQntH4j3-27">
          <mxGeometry width="50" height="50" relative="1" as="geometry">
            <mxPoint x="625" y="340" as="sourcePoint" />
            <mxPoint x="743" y="380" as="targetPoint" />
          </mxGeometry>
        </mxCell>
        <mxCell id="DOUFbh5CaLRuuQntH4j3-32" value="" style="endArrow=classic;html=1;rounded=0;exitX=0.5;exitY=1;exitDx=0;exitDy=0;entryX=0.5;entryY=0;entryDx=0;entryDy=0;" edge="1" parent="1" source="DOUFbh5CaLRuuQntH4j3-23" target="DOUFbh5CaLRuuQntH4j3-29">
          <mxGeometry width="50" height="50" relative="1" as="geometry">
            <mxPoint x="635" y="350" as="sourcePoint" />
            <mxPoint x="753" y="390" as="targetPoint" />
          </mxGeometry>
        </mxCell>
        <mxCell id="DOUFbh5CaLRuuQntH4j3-33" value="&lt;font style=&quot;font-size: 18px;&quot;&gt;(4,0)&lt;/font&gt;" style="text;html=1;strokeColor=none;fillColor=none;align=center;verticalAlign=middle;whiteSpace=wrap;rounded=0;" vertex="1" parent="1">
          <mxGeometry x="698" y="500" width="70" height="30" as="geometry" />
        </mxCell>
        <mxCell id="DOUFbh5CaLRuuQntH4j3-34" value="&lt;font style=&quot;font-size: 18px;&quot;&gt;(4,2)&lt;/font&gt;" style="text;html=1;strokeColor=none;fillColor=none;align=center;verticalAlign=middle;whiteSpace=wrap;rounded=0;" vertex="1" parent="1">
          <mxGeometry x="816" y="500" width="70" height="30" as="geometry" />
        </mxCell>
        <mxCell id="DOUFbh5CaLRuuQntH4j3-35" value="&lt;font style=&quot;font-size: 18px;&quot;&gt;(5,1)&lt;/font&gt;" style="text;html=1;strokeColor=none;fillColor=none;align=center;verticalAlign=middle;whiteSpace=wrap;rounded=0;" vertex="1" parent="1">
          <mxGeometry x="934" y="500" width="70" height="30" as="geometry" />
        </mxCell>
        <mxCell id="DOUFbh5CaLRuuQntH4j3-37" value="" style="endArrow=classic;html=1;rounded=0;exitX=0.5;exitY=1;exitDx=0;exitDy=0;entryX=0.5;entryY=0;entryDx=0;entryDy=0;" edge="1" parent="1" source="DOUFbh5CaLRuuQntH4j3-29" target="DOUFbh5CaLRuuQntH4j3-35">
          <mxGeometry width="50" height="50" relative="1" as="geometry">
            <mxPoint x="743" y="410" as="sourcePoint" />
            <mxPoint x="861" y="450" as="targetPoint" />
          </mxGeometry>
        </mxCell>
        <mxCell id="DOUFbh5CaLRuuQntH4j3-38" value="" style="endArrow=classic;html=1;rounded=0;exitX=0.5;exitY=1;exitDx=0;exitDy=0;entryX=0.5;entryY=0;entryDx=0;entryDy=0;" edge="1" parent="1" source="DOUFbh5CaLRuuQntH4j3-29" target="DOUFbh5CaLRuuQntH4j3-33">
          <mxGeometry width="50" height="50" relative="1" as="geometry">
            <mxPoint x="753" y="420" as="sourcePoint" />
            <mxPoint x="871" y="460" as="targetPoint" />
          </mxGeometry>
        </mxCell>
        <mxCell id="DOUFbh5CaLRuuQntH4j3-39" value="&lt;font style=&quot;font-size: 18px;&quot;&gt;(3,2)&lt;/font&gt;" style="text;html=1;strokeColor=none;fillColor=none;align=center;verticalAlign=middle;whiteSpace=wrap;rounded=0;" vertex="1" parent="1">
          <mxGeometry x="698" y="560" width="70" height="30" as="geometry" />
        </mxCell>
        <mxCell id="DOUFbh5CaLRuuQntH4j3-40" value="&lt;font style=&quot;font-size: 18px;&quot;&gt;(5,2)&lt;/font&gt;" style="text;html=1;strokeColor=none;fillColor=none;align=center;verticalAlign=middle;whiteSpace=wrap;rounded=0;" vertex="1" parent="1">
          <mxGeometry x="816" y="560" width="70" height="30" as="geometry" />
        </mxCell>
        <mxCell id="DOUFbh5CaLRuuQntH4j3-41" value="&lt;font style=&quot;font-size: 18px;&quot;&gt;(4,3)&lt;/font&gt;" style="text;html=1;strokeColor=none;fillColor=none;align=center;verticalAlign=middle;whiteSpace=wrap;rounded=0;" vertex="1" parent="1">
          <mxGeometry x="934" y="560" width="70" height="30" as="geometry" />
        </mxCell>
        <mxCell id="DOUFbh5CaLRuuQntH4j3-43" value="" style="endArrow=classic;html=1;rounded=0;exitX=0.5;exitY=1;exitDx=0;exitDy=0;entryX=0.5;entryY=0;entryDx=0;entryDy=0;" edge="1" parent="1" source="DOUFbh5CaLRuuQntH4j3-34" target="DOUFbh5CaLRuuQntH4j3-41">
          <mxGeometry width="50" height="50" relative="1" as="geometry">
            <mxPoint x="861" y="480" as="sourcePoint" />
            <mxPoint x="979" y="510" as="targetPoint" />
          </mxGeometry>
        </mxCell>
        <mxCell id="DOUFbh5CaLRuuQntH4j3-44" value="" style="endArrow=classic;html=1;rounded=0;exitX=0.5;exitY=1;exitDx=0;exitDy=0;entryX=0.5;entryY=0;entryDx=0;entryDy=0;" edge="1" parent="1" source="DOUFbh5CaLRuuQntH4j3-34" target="DOUFbh5CaLRuuQntH4j3-40">
          <mxGeometry width="50" height="50" relative="1" as="geometry">
            <mxPoint x="871" y="490" as="sourcePoint" />
            <mxPoint x="989" y="520" as="targetPoint" />
          </mxGeometry>
        </mxCell>
        <mxCell id="DOUFbh5CaLRuuQntH4j3-45" value="" style="endArrow=classic;html=1;rounded=0;exitX=0.5;exitY=1;exitDx=0;exitDy=0;entryX=0.5;entryY=0;entryDx=0;entryDy=0;" edge="1" parent="1" source="DOUFbh5CaLRuuQntH4j3-34" target="DOUFbh5CaLRuuQntH4j3-39">
          <mxGeometry width="50" height="50" relative="1" as="geometry">
            <mxPoint x="881" y="500" as="sourcePoint" />
            <mxPoint x="999" y="530" as="targetPoint" />
          </mxGeometry>
        </mxCell>
        <mxCell id="DOUFbh5CaLRuuQntH4j3-46" value="&lt;font style=&quot;font-size: 18px;&quot;&gt;(4,3)&lt;/font&gt;" style="text;html=1;strokeColor=none;fillColor=none;align=center;verticalAlign=middle;whiteSpace=wrap;rounded=0;" vertex="1" parent="1">
          <mxGeometry x="816" y="620" width="70" height="30" as="geometry" />
        </mxCell>
        <mxCell id="DOUFbh5CaLRuuQntH4j3-47" value="&lt;font style=&quot;font-size: 18px;&quot;&gt;(5,3)&lt;/font&gt;" style="text;html=1;strokeColor=none;fillColor=none;align=center;verticalAlign=middle;whiteSpace=wrap;rounded=0;" vertex="1" parent="1">
          <mxGeometry x="934" y="620" width="70" height="30" as="geometry" />
        </mxCell>
        <mxCell id="DOUFbh5CaLRuuQntH4j3-48" value="&lt;font style=&quot;font-size: 18px;&quot;&gt;(4,4)&lt;/font&gt;" style="text;html=1;strokeColor=none;fillColor=none;align=center;verticalAlign=middle;whiteSpace=wrap;rounded=0;" vertex="1" parent="1">
          <mxGeometry x="1052" y="620" width="70" height="30" as="geometry" />
        </mxCell>
        <mxCell id="DOUFbh5CaLRuuQntH4j3-49" value="" style="endArrow=classic;html=1;rounded=0;exitX=0.5;exitY=1;exitDx=0;exitDy=0;entryX=0.5;entryY=0;entryDx=0;entryDy=0;" edge="1" parent="1" source="DOUFbh5CaLRuuQntH4j3-41" target="DOUFbh5CaLRuuQntH4j3-48">
          <mxGeometry width="50" height="50" relative="1" as="geometry">
            <mxPoint x="861" y="550" as="sourcePoint" />
            <mxPoint x="979" y="570" as="targetPoint" />
          </mxGeometry>
        </mxCell>
        <mxCell id="DOUFbh5CaLRuuQntH4j3-50" value="" style="endArrow=classic;html=1;rounded=0;exitX=0.5;exitY=1;exitDx=0;exitDy=0;" edge="1" parent="1" source="DOUFbh5CaLRuuQntH4j3-41" target="DOUFbh5CaLRuuQntH4j3-47">
          <mxGeometry width="50" height="50" relative="1" as="geometry">
            <mxPoint x="871" y="560" as="sourcePoint" />
            <mxPoint x="989" y="580" as="targetPoint" />
          </mxGeometry>
        </mxCell>
        <mxCell id="DOUFbh5CaLRuuQntH4j3-51" value="" style="endArrow=classic;html=1;rounded=0;exitX=0.5;exitY=1;exitDx=0;exitDy=0;entryX=0.5;entryY=0;entryDx=0;entryDy=0;" edge="1" parent="1" source="DOUFbh5CaLRuuQntH4j3-41" target="DOUFbh5CaLRuuQntH4j3-46">
          <mxGeometry width="50" height="50" relative="1" as="geometry">
            <mxPoint x="881" y="570" as="sourcePoint" />
            <mxPoint x="999" y="590" as="targetPoint" />
          </mxGeometry>
        </mxCell>
        <mxCell id="DOUFbh5CaLRuuQntH4j3-52" value="&lt;font style=&quot;font-size: 18px;&quot;&gt;(6,3)&lt;/font&gt;" style="text;html=1;strokeColor=none;fillColor=none;align=center;verticalAlign=middle;whiteSpace=wrap;rounded=0;" vertex="1" parent="1">
          <mxGeometry x="816" y="680" width="70" height="30" as="geometry" />
        </mxCell>
        <mxCell id="DOUFbh5CaLRuuQntH4j3-53" value="&lt;font style=&quot;font-size: 18px;&quot;&gt;(5,2)&lt;/font&gt;" style="text;html=1;strokeColor=none;fillColor=none;align=center;verticalAlign=middle;whiteSpace=wrap;rounded=0;" vertex="1" parent="1">
          <mxGeometry x="934" y="680" width="70" height="30" as="geometry" />
        </mxCell>
        <mxCell id="DOUFbh5CaLRuuQntH4j3-54" value="&lt;font style=&quot;font-size: 18px;&quot;&gt;(5,4)&lt;/font&gt;" style="text;html=1;strokeColor=none;fillColor=none;align=center;verticalAlign=middle;whiteSpace=wrap;rounded=0;" vertex="1" parent="1">
          <mxGeometry x="1052" y="680" width="70" height="30" as="geometry" />
        </mxCell>
        <mxCell id="DOUFbh5CaLRuuQntH4j3-56" value="" style="endArrow=classic;html=1;rounded=0;exitX=0.5;exitY=1;exitDx=0;exitDy=0;entryX=0.5;entryY=0;entryDx=0;entryDy=0;" edge="1" parent="1" source="DOUFbh5CaLRuuQntH4j3-47" target="DOUFbh5CaLRuuQntH4j3-52">
          <mxGeometry width="50" height="50" relative="1" as="geometry">
            <mxPoint x="979" y="600" as="sourcePoint" />
            <mxPoint x="861" y="630" as="targetPoint" />
          </mxGeometry>
        </mxCell>
        <mxCell id="DOUFbh5CaLRuuQntH4j3-57" value="" style="endArrow=classic;html=1;rounded=0;exitX=0.5;exitY=1;exitDx=0;exitDy=0;entryX=0.5;entryY=0;entryDx=0;entryDy=0;" edge="1" parent="1" source="DOUFbh5CaLRuuQntH4j3-47" target="DOUFbh5CaLRuuQntH4j3-54">
          <mxGeometry width="50" height="50" relative="1" as="geometry">
            <mxPoint x="989" y="610" as="sourcePoint" />
            <mxPoint x="871" y="640" as="targetPoint" />
          </mxGeometry>
        </mxCell>
        <mxCell id="DOUFbh5CaLRuuQntH4j3-58" value="" style="endArrow=classic;html=1;rounded=0;entryX=0.5;entryY=0;entryDx=0;entryDy=0;" edge="1" parent="1" target="DOUFbh5CaLRuuQntH4j3-53">
          <mxGeometry width="50" height="50" relative="1" as="geometry">
            <mxPoint x="970" y="650" as="sourcePoint" />
            <mxPoint x="881" y="650" as="targetPoint" />
          </mxGeometry>
        </mxCell>
        <mxCell id="DOUFbh5CaLRuuQntH4j3-59" value="&lt;font style=&quot;font-size: 18px;&quot;&gt;(4,4)&lt;/font&gt;" style="text;html=1;strokeColor=none;fillColor=none;align=center;verticalAlign=middle;whiteSpace=wrap;rounded=0;" vertex="1" parent="1">
          <mxGeometry x="934" y="740" width="70" height="30" as="geometry" />
        </mxCell>
        <mxCell id="DOUFbh5CaLRuuQntH4j3-60" value="&lt;font color=&quot;#006633&quot; style=&quot;font-size: 18px;&quot;&gt;B(5,5)&lt;/font&gt;" style="text;html=1;strokeColor=none;fillColor=none;align=center;verticalAlign=middle;whiteSpace=wrap;rounded=0;" vertex="1" parent="1">
          <mxGeometry x="1052" y="740" width="70" height="30" as="geometry" />
        </mxCell>
        <mxCell id="DOUFbh5CaLRuuQntH4j3-61" value="&lt;font style=&quot;font-size: 18px;&quot;&gt;(6,4)&lt;/font&gt;" style="text;html=1;strokeColor=none;fillColor=none;align=center;verticalAlign=middle;whiteSpace=wrap;rounded=0;" vertex="1" parent="1">
          <mxGeometry x="1170" y="740" width="70" height="30" as="geometry" />
        </mxCell>
        <mxCell id="DOUFbh5CaLRuuQntH4j3-62" value="" style="endArrow=classic;html=1;rounded=0;exitX=0.5;exitY=1;exitDx=0;exitDy=0;entryX=0.5;entryY=0;entryDx=0;entryDy=0;" edge="1" parent="1" source="DOUFbh5CaLRuuQntH4j3-54" target="DOUFbh5CaLRuuQntH4j3-61">
          <mxGeometry width="50" height="50" relative="1" as="geometry">
            <mxPoint x="979" y="660" as="sourcePoint" />
            <mxPoint x="1097" y="690" as="targetPoint" />
          </mxGeometry>
        </mxCell>
        <mxCell id="DOUFbh5CaLRuuQntH4j3-63" value="" style="endArrow=classic;html=1;rounded=0;exitX=0.5;exitY=1;exitDx=0;exitDy=0;entryX=0.5;entryY=0;entryDx=0;entryDy=0;" edge="1" parent="1" source="DOUFbh5CaLRuuQntH4j3-54" target="DOUFbh5CaLRuuQntH4j3-60">
          <mxGeometry width="50" height="50" relative="1" as="geometry">
            <mxPoint x="989" y="670" as="sourcePoint" />
            <mxPoint x="1107" y="700" as="targetPoint" />
          </mxGeometry>
        </mxCell>
        <mxCell id="DOUFbh5CaLRuuQntH4j3-64" value="" style="endArrow=classic;html=1;rounded=0;entryX=0.5;entryY=0;entryDx=0;entryDy=0;" edge="1" parent="1" target="DOUFbh5CaLRuuQntH4j3-59">
          <mxGeometry width="50" height="50" relative="1" as="geometry">
            <mxPoint x="1090" y="710" as="sourcePoint" />
            <mxPoint x="1117" y="710" as="targetPoint" />
          </mxGeometry>
        </mxCell>
      </root>
    </mxGraphModel>
  </diagram>
</mxfile>
